<?xml version="1.0" encoding="utf-8"?>
<svg version="1.1" xmlns:xlink="http://www.w3.org/1999/xlink" width="7px" height="8px" xmlns="http://www.w3.org/2000/svg">
  <g transform="matrix(1 0 0 1 -1112 -1031 )">
    <path d="M 6.82553578581662 3.79763570274417  L 0.898392026717988 0.155078352139097  C 0.710228725428237 0.0394416063329825  0.427983799219055 0.0394416063329825  0.239820497929304 0.155078352139097  C 0.0516571966395531 0.270715097945211  0.0516571966395531 0.444170200844686  0.239820497929304 0.5598069466508  L 5.83767849263352 4  L 0.239820497929304 7.4401930533492  C 0.0516571966395531 7.55582979915531  0.0516571966395531 7.72928490205479  0.239820497929304 7.8449216478609  C 0.33390214857418 7.90274002076396  0.475024611678691 7.93164919931062  0.569106262323567 7.93164919931062  C 0.663187912968601 7.93164919931062  0.804310376073113 7.90274002076396  0.898392026717988 7.8449216478609  L 6.82553578581662 4.20236429725583  C 7.01369908710637 4.08672755144971  7.01369908710637 3.91327244855029  6.82553578581662 3.79763570274417  Z " fill-rule="nonzero" fill="#000000" stroke="none" fill-opacity="0.647058823529412" transform="matrix(1 0 0 1 1112 1031 )" />
  </g>
</svg>