<?xml version="1.0" encoding="utf-8"?>
<svg version="1.1" xmlns:xlink="http://www.w3.org/1999/xlink" width="21px" height="21px" xmlns="http://www.w3.org/2000/svg">
  <g transform="matrix(1 0 0 1 -160 -130 )">
    <path d="M 15.44921875 14.21875  C 15.6223958333333 14.0455729166667  15.708984375 13.8359375  15.708984375 13.58984375  C 15.708984375 13.3528645833333  15.6223958333333 13.1477864583333  15.44921875 12.974609375  L 12.974609375 10.5  L 15.44921875 8.025390625  C 15.6223958333333 7.85221354166667  15.708984375 7.64713541666667  15.708984375 7.41015625  C 15.708984375 7.1640625  15.6223958333333 6.95442708333333  15.44921875 6.78125  L 14.21875 5.55078125  C 14.0455729166667 5.37760416666667  13.8359375 5.291015625  13.58984375 5.291015625  C 13.3528645833333 5.291015625  13.1477864583333 5.37760416666667  12.974609375 5.55078125  L 10.5 8.025390625  L 8.025390625 5.55078125  C 7.85221354166667 5.37760416666667  7.64713541666667 5.291015625  7.41015625 5.291015625  C 7.1640625 5.291015625  6.95442708333333 5.37760416666667  6.78125 5.55078125  L 5.55078125 6.78125  C 5.37760416666667 6.95442708333333  5.291015625 7.1640625  5.291015625 7.41015625  C 5.291015625 7.64713541666667  5.37760416666667 7.85221354166667  5.55078125 8.025390625  L 8.025390625 10.5  L 5.55078125 12.974609375  C 5.37760416666667 13.1477864583333  5.291015625 13.3528645833333  5.291015625 13.58984375  C 5.291015625 13.8359375  5.37760416666667 14.0455729166667  5.55078125 14.21875  L 6.78125 15.44921875  C 6.95442708333333 15.6223958333333  7.1640625 15.708984375  7.41015625 15.708984375  C 7.64713541666667 15.708984375  7.85221354166667 15.6223958333333  8.025390625 15.44921875  L 10.5 12.974609375  L 12.974609375 15.44921875  C 13.1477864583333 15.6223958333333  13.3528645833333 15.708984375  13.58984375 15.708984375  C 13.8359375 15.708984375  14.0455729166667 15.6223958333333  14.21875 15.44921875  L 15.44921875 14.21875  Z M 19.591796875 5.2294921875  C 20.5305989583333 6.83821614583333  21 8.59505208333333  21 10.5  C 21 12.4049479166667  20.5305989583333 14.1617838541667  19.591796875 15.7705078125  C 18.6529947916667 17.3792317708333  17.3792317708333 18.6529947916667  15.7705078125 19.591796875  C 14.1617838541667 20.5305989583333  12.4049479166667 21  10.5 21  C 8.59505208333333 21  6.83821614583333 20.5305989583333  5.2294921875 19.591796875  C 3.62076822916667 18.6529947916667  2.34700520833333 17.3792317708333  1.408203125 15.7705078125  C 0.469401041666667 14.1617838541667  0 12.4049479166667  0 10.5  C 0 8.59505208333333  0.469401041666667 6.83821614583333  1.408203125 5.2294921875  C 2.34700520833333 3.62076822916667  3.62076822916667 2.34700520833333  5.2294921875 1.408203125  C 6.83821614583333 0.469401041666665  8.59505208333333 0  10.5 0  C 12.4049479166667 0  14.1617838541667 0.469401041666665  15.7705078125 1.408203125  C 17.3792317708333 2.34700520833333  18.6529947916667 3.62076822916667  19.591796875 5.2294921875  Z " fill-rule="nonzero" fill="#d9001b" stroke="none" transform="matrix(1 0 0 1 160 130 )" />
  </g>
</svg>