<?xml version="1.0" encoding="utf-8"?>
<svg version="1.1" xmlns:xlink="http://www.w3.org/1999/xlink" width="86px" height="80px" xmlns="http://www.w3.org/2000/svg">
  <g transform="matrix(1 0 0 1 -364 -340 )">
    <path d="M 364 340  L 450 340  L 450 420  L 364 420  L 364 340  " fill-rule="nonzero" fill="#cccccc" stroke="none" />
    <path d="M 370 346  L 444 346  L 444 414  L 370 414  L 370 346  " fill-rule="nonzero" fill="#ffffff" stroke="none" />
    <path d="M 414.72 364  C 411.36 364  408.72 361.36  408.72 358  C 408.72 354.64  411.36 352  414.72 352  C 418.08 352  420.72 354.64  420.72 358  C 420.72 361.36  418.08 364  414.72 364  " fill-rule="nonzero" fill="#cccccc" stroke="none" />
    <path d="M 372 412  L 372 376.8  L 389.5 360.8  L 414 376.279069767442  L 428 370.4  L 442 376.279069767442  L 442 412  L 372 412  " fill-rule="nonzero" fill="#169bd5" stroke="none" />
  </g>
</svg>