<?xml version="1.0" encoding="utf-8"?>
<svg version="1.1" xmlns:xlink="http://www.w3.org/1999/xlink" width="7px" height="7px" xmlns="http://www.w3.org/2000/svg">
  <g transform="matrix(1 0 0 1 -1502 -1904 )">
    <path d="M 6.82553578581662 3.32293123990115  L 0.898392026717988 0.135693558121709  C 0.710228725428237 0.0345114055413597  0.427983799219055 0.0345114055413597  0.239820497929304 0.135693558121709  C 0.0516571966395531 0.236875710702059  0.0516571966395531 0.3886489257391  0.239820497929304 0.48983107831945  L 5.83767849263352 3.5  L 0.239820497929304 6.51016892168055  C 0.0516571966395531 6.6113510742609  0.0516571966395531 6.76312428929794  0.239820497929304 6.86430644187829  C 0.33390214857418 6.91489751816847  0.475024611678691 6.94019304939679  0.569106262323567 6.94019304939679  C 0.663187912968601 6.94019304939679  0.804310376073113 6.91489751816847  0.898392026717988 6.86430644187829  L 6.82553578581662 3.67706876009885  C 7.01369908710637 3.5758866075185  7.01369908710637 3.4241133924815  6.82553578581662 3.32293123990115  Z " fill-rule="nonzero" fill="#000000" stroke="none" fill-opacity="0.647058823529412" transform="matrix(1 0 0 1 1502 1904 )" />
  </g>
</svg>