<?xml version="1.0" encoding="utf-8"?>
<svg version="1.1" xmlns:xlink="http://www.w3.org/1999/xlink" width="52px" height="50px" xmlns="http://www.w3.org/2000/svg">
  <g transform="matrix(1 0 0 1 -323 -265 )">
    <path d="M 323 265  L 375 265  L 375 315  L 323 315  L 323 265  " fill-rule="nonzero" fill="#cccccc" stroke="none" />
    <path d="M 327 269  L 371 269  L 371 311  L 327 311  L 327 269  " fill-rule="nonzero" fill="#ffffff" stroke="none" />
    <path d="M 353.79 280  C 351.69 280  350.04 278.35  350.04 276.25  C 350.04 274.15  351.69 272.5  353.79 272.5  C 355.89 272.5  357.54 274.15  357.54 276.25  C 357.54 278.35  355.89 280  353.79 280  " fill-rule="nonzero" fill="#cccccc" stroke="none" />
    <path d="M 329 310  L 329 288.55  L 339.25 278.8  L 353.6 287.5  L 361.8 284.65  L 370 287.5  L 370 310  L 329 310  " fill-rule="nonzero" fill="#169bd5" stroke="none" />
  </g>
</svg>